<svg xmlns="http://www.w3.org/2000/svg" xmlns:svgjs="http://svgjs.dev/svgjs" xmlns:xlink="http://www.w3.org/1999/xlink" width="128" height="128" version="1.1" viewBox="0 0 128 128"><g transform="matrix(0.8046875,0,0,0.8046875,12.760752631578946,18.139714814964435)"><svg xmlns="http://www.w3.org/2000/svg" xmlns:xlink="http://www.w3.org/1999/xlink" width="128" height="114" data-background-color="#ffffff" preserveAspectRatio="xMidYMid meet" viewBox="0 0 95 85"><g id="tight-bounds" transform="matrix(1,0,0,1,-0.24049999999999727,-0.006395604395592613)"><svg width="95.481" height="85.013" viewBox="0 0 95.481 85.013"><g><svg width="95.481" height="85.013" viewBox="0 0 95.481 85.013"><g><svg width="95.481" height="85.013" viewBox="0 0 95.481 85.013"><g id="textblocktransform"><svg id="textblock" width="95.481" height="85.013" viewBox="0 0 95.481 85.013"><g><svg width="95.481" height="85.013" viewBox="0 0 95.481 85.013"><g><svg width="95.481" height="85.013" viewBox="0 0 95.481 85.013"><g><svg xmlns="http://www.w3.org/2000/svg" xmlns:xlink="http://www.w3.org/1999/xlink" id="icon-0" width="95.481" height="85.013" x="0" y="0" class="icon-icon-0" data-fill-palette-color="accent" enable-background="new 0 0 100 100" version="1.1" viewBox="14.6 17.534 75.1 66.866" xml:space="preserve"/></g></svg></g></svg></g></svg></g></svg></g></svg></g><mask id="64c6003f-fe47-44e3-823c-25b47718aa5f"><g id="SvgjsG1113"><svg width="95.481" height="85.013" viewBox="0 0 95.481 85.013"><g><svg width="95.481" height="85.013" viewBox="0 0 95.481 85.013"><g><svg width="95.481" height="85.013" viewBox="0 0 95.481 85.013"><g id="SvgjsG1112"><svg id="SvgjsSvg1111" width="95.481" height="85.013" viewBox="0 0 95.481 85.013"><g><svg width="95.481" height="85.013" viewBox="0 0 95.481 85.013"><g><svg width="95.481" height="85.013" viewBox="0 0 95.481 85.013"><g><svg xmlns="http://www.w3.org/2000/svg" xmlns:xlink="http://www.w3.org/1999/xlink" id="SvgjsSvg1110" width="95.481" height="85.013" x="0" y="0" class="icon-icon-0" data-fill-palette-color="accent" enable-background="new 0 0 100 100" version="1.1" viewBox="14.6 17.534 75.1 66.866" xml:space="preserve"><g fill="#fff"><g fill="#fff"><path fill="#fff" d="M89.7 17.7c-0.9 16-4.5 27.3-20.5 40.3 0 6.8-2.7 13.6-8.2 18.4l-9.1-10.2c-1.9 1.8-4.4 2.7-6.8 2.8-3.2 0.1-6.3-1.1-8.6-3.6-4-4.5-3.6-11.4 0.8-15.4l-9.1-10.2c5.5-4.9 12.5-6.9 19.3-6.1C62.1 19.2 73.7 16.8 89.7 17.7zM73.1 42.3c3-2.7 3.2-7.2 0.6-10.2-1.5-1.6-3.5-2.5-5.7-2.4-1.7 0.1-3.3 0.7-4.5 1.8-3 2.7-3.2 7.2-0.6 10.2 1.5 1.6 3.5 2.5 5.7 2.4C70.2 44 71.8 43.4 73.1 42.3z"/></g></g><g fill="#fff"><path fill="#fff" d="M14.6 84.4l0.5-1.6c0.1-0.4 2.9-9.9 6.5-13.6 2-2 4.4-3.1 6.6-3.1 1.4 0 2.5 0.4 3.4 1.3 2.3 2.3 1.5 6.7-1.8 10-3.9 3.9-13.2 6.4-13.6 6.6L14.6 84.4z"/></g></svg></g></svg></g></svg></g></svg></g></svg></g></svg></g></svg></g></mask><linearGradient id="c7e48ff7-81dc-4c2d-8858-594dfa090c50" x1="0" x2="1" y1=".548" y2=".55"><stop offset="0" stop-color="#ff6cab"/><stop offset="1" stop-color="#7366ff"/></linearGradient><rect width="95.481" height="85.013" fill="url(#c7e48ff7-81dc-4c2d-8858-594dfa090c50)" data-fill-palette-color="accent" mask="url(#64c6003f-fe47-44e3-823c-25b47718aa5f)"/></svg><rect width="95.481" height="85.013" fill="none" stroke="none" visibility="hidden"/></g></svg></g></svg>